<svg width="207" height="76" viewBox="0 0 207 76" fill="none" xmlns="http://www.w3.org/2000/svg">
<path d="M3.042 2.93337H14.5226L30.0437 24.9538V2.93337H38.6381V35.002H27.4783L11.6578 12.4898V35.002H3.042V2.93337ZM62.0345 35.7075C58.2718 35.7075 54.9509 35.0091 52.0719 33.6123C49.1928 32.2155 46.9551 30.2558 45.3588 27.7331C43.7768 25.1961 42.9858 22.2743 42.9858 18.9677C42.9858 15.661 43.7768 12.7464 45.3588 10.2236C46.9551 7.68665 49.1928 5.71977 52.0719 4.32301C54.9509 2.92624 58.2718 2.22786 62.0345 2.22786C65.7972 2.22786 69.1181 2.92624 71.9971 4.32301C74.8762 5.71977 77.1067 7.68665 78.6888 10.2236C80.2851 12.7464 81.0832 15.661 81.0832 18.9677C81.0832 22.2743 80.2851 25.1961 78.6888 27.7331C77.1067 30.2558 74.8762 32.2155 71.9971 33.6123C69.1181 35.0091 65.7972 35.7075 62.0345 35.7075ZM51.9436 18.9677C51.9436 20.7635 52.3498 22.3242 53.1622 23.6497C53.9888 24.9752 55.1576 25.9942 56.6684 26.7069C58.1934 27.4195 59.9821 27.7758 62.0345 27.7758C64.0869 27.7758 65.8685 27.4195 67.3793 26.7069C68.9043 25.9942 70.073 24.9752 70.8854 23.6497C71.7121 22.3242 72.1254 20.7635 72.1254 18.9677C72.1254 17.1718 71.7121 15.6111 70.8854 14.2856C70.073 12.9601 68.9043 11.9411 67.3793 11.2284C65.8685 10.5158 64.0869 10.1595 62.0345 10.1595C59.9821 10.1595 58.1934 10.5158 56.6684 11.2284C55.1576 11.9411 53.9888 12.9601 53.1622 14.2856C52.3498 15.6111 51.9436 17.1718 51.9436 18.9677ZM103.247 16.958C104.643 16.958 105.741 16.6302 106.539 15.9746C107.337 15.319 107.736 14.4068 107.736 13.2381C107.736 12.0694 107.337 11.1572 106.539 10.5016C105.755 9.84593 104.658 9.51812 103.247 9.51812H94.2888V16.958H103.247ZM85.4165 2.93337H104.465C106.888 2.93337 109.019 3.36095 110.858 4.21611C112.71 5.07127 114.143 6.28275 115.155 7.85055C116.181 9.4041 116.694 11.1999 116.694 13.2381C116.694 14.8486 116.366 16.3167 115.711 17.6422C115.055 18.9534 114.114 20.0651 112.889 20.9773C111.677 21.8895 110.245 22.5522 108.591 22.9655L117.806 35.002H107.522L98.9281 23.4573H94.2888V35.002H85.4165V2.93337ZM168.415 35.002H159.991V10.6726L149.451 35.002H140.494L129.975 10.7795V35.002H121.53V2.93337H135.234L145.005 26.3862L154.732 2.93337H168.415V35.002ZM19.0549 40.9334C22.8319 40.9334 26.1528 41.5961 29.0176 42.9216C31.8966 44.2471 34.1271 46.1214 35.7092 48.5443C37.2912 50.9673 38.0823 53.7751 38.0823 56.9677C38.0823 60.1603 37.2912 62.968 35.7092 65.391C34.1271 67.814 31.8966 69.6882 29.0176 71.0137C26.1528 72.3392 22.8319 73.002 19.0549 73.002H3.042V40.9334H19.0549ZM19.7177 65.1131C21.6275 65.1131 23.288 64.7853 24.699 64.1296C26.1243 63.4598 27.2146 62.512 27.97 61.2862C28.7396 60.0605 29.1245 58.621 29.1245 56.9677C29.1245 55.3143 28.7396 53.8748 27.97 52.6491C27.2146 51.4234 26.1243 50.4827 24.699 49.8271C23.288 49.1572 21.6275 48.8222 19.7177 48.8222H11.8716V65.1131H19.7177ZM69.445 60.1959H51.4866L50.5887 65.8186H70.8988V73.002H41.075L43.5122 56.9677L41.075 40.9334H70.685V48.1167H50.5887L51.4866 53.7394H69.445V60.1959ZM83.3604 62.4835C83.56 63.8375 84.3724 64.9064 85.7977 65.6903C87.2229 66.46 89.1043 66.8448 91.4417 66.8448C93.6366 66.8448 95.347 66.5597 96.5727 65.9896C97.8127 65.4195 98.4327 64.6071 98.4327 63.5524C98.4327 62.9823 98.2759 62.512 97.9623 62.1414C97.6488 61.7566 97.1143 61.443 96.3589 61.2007C95.6178 60.9584 94.5844 60.7731 93.2589 60.6449L87.3156 60.089C82.94 59.6899 79.7403 58.7065 77.7164 57.1387C75.7067 55.5566 74.7019 53.3617 74.7019 50.5539C74.7019 48.3733 75.3433 46.5133 76.626 44.974C77.9088 43.4205 79.7189 42.2446 82.0563 41.4465C84.408 40.6341 87.1659 40.2279 90.33 40.2279C93.3801 40.2279 96.1095 40.6697 98.5182 41.5534C100.927 42.437 102.83 43.677 104.226 45.2733C105.637 46.8696 106.414 48.7153 106.557 50.8105H97.5348C97.378 49.656 96.6511 48.751 95.3541 48.0954C94.0713 47.4255 92.3396 47.0905 90.159 47.0905C88.1351 47.0905 86.5459 47.3613 85.3915 47.9029C84.2512 48.4445 83.6811 49.2142 83.6811 50.2119C83.6811 50.9958 84.0374 51.6086 84.7501 52.0505C85.4627 52.4781 86.7098 52.7845 88.4914 52.9698L94.8838 53.5898C97.9196 53.8748 100.35 54.3665 102.174 55.0649C103.998 55.7633 105.324 56.7182 106.151 57.9297C106.977 59.1412 107.39 60.6734 107.39 62.5262C107.39 64.7496 106.721 66.7094 105.381 68.4055C104.041 70.0873 102.153 71.3914 99.7154 72.3178C97.2782 73.2442 94.4633 73.7075 91.2707 73.7075C87.9783 73.7075 85.0636 73.2442 82.5267 72.3178C79.9897 71.3771 78.0085 70.0588 76.5833 68.3627C75.158 66.6666 74.4097 64.7069 74.3385 62.4835H83.3604ZM120.465 40.9334V73.002H111.592V40.9334H120.465ZM145.123 56.4118H162.119V73.002H155.855L155.427 68.7048C154.045 70.2726 152.306 71.4983 150.211 72.382C148.13 73.2656 145.714 73.7075 142.963 73.7075C139.585 73.7075 136.521 73.0518 133.77 71.7406C131.019 70.4151 128.846 68.491 127.25 65.9682C125.653 63.4455 124.855 60.4453 124.855 56.9677C124.855 53.4757 125.66 50.4756 127.271 47.9671C128.882 45.4444 131.091 43.5274 133.899 42.2161C136.721 40.8906 139.906 40.2279 143.455 40.2279C146.89 40.2279 149.904 40.7623 152.498 41.8313C155.107 42.9002 157.195 44.3825 158.762 46.2781C160.344 48.1737 161.371 50.3615 161.841 52.8415H152.905C152.619 51.7726 152.042 50.8461 151.173 50.0622C150.318 49.2783 149.227 48.6797 147.902 48.2664C146.591 47.8388 145.115 47.625 143.476 47.625C141.467 47.625 139.735 47.9813 138.281 48.694C136.827 49.3923 135.709 50.4399 134.925 51.8367C134.141 53.2335 133.749 54.9438 133.749 56.9677C133.749 59.0201 134.169 60.7589 135.01 62.1842C135.865 63.6094 137.077 64.6855 138.645 65.4124C140.227 66.1393 142.101 66.5027 144.267 66.5027C146.462 66.5027 148.386 66.1749 150.04 65.5193C151.707 64.8494 152.99 63.8945 153.888 62.6545H145.123V56.4118ZM167.201 40.9334H178.682L194.203 62.9538V40.9334H202.798V73.002H191.638L175.817 50.4898V73.002H167.201V40.9334Z" fill="#FEFAFE"/>
<path d="M179.474 5.95579V9.20098H184.414V5.95579H185.778V13.707H184.414V10.3998H179.474V13.707H178.109V5.95579H179.474ZM188.177 5.95579L190.306 12.4668L192.663 5.95579H194.141L196.497 12.441L198.626 5.95579H200.052L197.427 13.707H195.691L193.396 7.47503L191.102 13.707H189.366L186.741 5.95579H188.177Z" fill="#FEFAFE"/>
<rect x="175.204" y="3.51573" width="27.0403" height="12.7597" rx="2.81303" stroke="#FEFAFE" stroke-width="1.12521"/>
</svg>
