<svg width="206" height="77" viewBox="0 0 206 77" fill="none" xmlns="http://www.w3.org/2000/svg">
<path d="M2.97169 3.11306H14.4522L29.9734 25.1335V3.11306H38.5678V35.1816H27.4079L11.5874 12.6695V35.1816H2.97169V3.11306ZM61.9642 35.8871C58.2015 35.8871 54.8806 35.1888 52.0015 33.792C49.1225 32.3952 46.8848 30.4355 45.2885 27.9128C43.7065 25.3758 42.9154 22.454 42.9154 19.1473C42.9154 15.8407 43.7065 12.926 45.2885 10.4033C46.8848 7.86633 49.1225 5.89946 52.0015 4.5027C54.8806 3.10593 58.2015 2.40755 61.9642 2.40755C65.7269 2.40755 69.0478 3.10593 71.9268 4.5027C74.8059 5.89946 77.0364 7.86633 78.6185 10.4033C80.2148 12.926 81.0129 15.8407 81.0129 19.1473C81.0129 22.454 80.2148 25.3758 78.6185 27.9128C77.0364 30.4355 74.8059 32.3952 71.9268 33.792C69.0478 35.1888 65.7269 35.8871 61.9642 35.8871ZM51.8733 19.1473C51.8733 20.9432 52.2795 22.5039 53.0919 23.8294C53.9185 25.1549 55.0873 26.1739 56.598 26.8866C58.1231 27.5992 59.9118 27.9555 61.9642 27.9555C64.0166 27.9555 65.7982 27.5992 67.3089 26.8866C68.834 26.1739 70.0027 25.1549 70.8151 23.8294C71.6418 22.5039 72.0551 20.9432 72.0551 19.1473C72.0551 17.3515 71.6418 15.7908 70.8151 14.4653C70.0027 13.1398 68.834 12.1208 67.3089 11.4081C65.7982 10.6955 64.0166 10.3392 61.9642 10.3392C59.9118 10.3392 58.1231 10.6955 56.598 11.4081C55.0873 12.1208 53.9185 13.1398 53.0919 14.4653C52.2795 15.7908 51.8733 17.3515 51.8733 19.1473ZM103.176 17.1377C104.573 17.1377 105.671 16.8099 106.469 16.1543C107.267 15.4987 107.666 14.5865 107.666 13.4178C107.666 12.249 107.267 11.3369 106.469 10.6812C105.685 10.0256 104.587 9.69781 103.176 9.69781H94.2185V17.1377H103.176ZM85.3462 3.11306H104.395C106.818 3.11306 108.949 3.54064 110.787 4.3958C112.64 5.25096 114.073 6.46244 115.084 8.03024C116.111 9.58378 116.624 11.3796 116.624 13.4178C116.624 15.0283 116.296 16.4963 115.64 17.8218C114.985 19.1331 114.044 20.2448 112.818 21.157C111.607 22.0692 110.174 22.7319 108.521 23.1452L117.735 35.1816H107.452L98.8578 23.637H94.2185V35.1816H85.3462V3.11306ZM168.344 35.1816H159.921V10.8523L149.381 35.1816H140.423L129.905 10.9592V35.1816H121.46V3.11306H135.164L144.934 26.5659L154.662 3.11306H168.344V35.1816ZM18.9846 41.1131C22.7616 41.1131 26.0824 41.7758 28.9472 43.1013C31.8263 44.4268 34.0568 46.301 35.6389 48.724C37.2209 51.147 38.012 53.9547 38.012 57.1473C38.012 60.34 37.2209 63.1477 35.6389 65.5707C34.0568 67.9937 31.8263 69.8679 28.9472 71.1934C26.0824 72.5189 22.7616 73.1816 18.9846 73.1816H2.97169V41.1131H18.9846ZM19.6474 65.2928C21.5572 65.2928 23.2177 64.965 24.6287 64.3093C26.0539 63.6395 27.1443 62.6917 27.8997 61.4659C28.6693 60.2402 29.0541 58.8007 29.0541 57.1473C29.0541 55.494 28.6693 54.0545 27.8997 52.8288C27.1443 51.603 26.0539 50.6624 24.6287 50.0067C23.2177 49.3369 21.5572 49.0019 19.6474 49.0019H11.8012V65.2928H19.6474ZM69.3747 60.3756H51.4163L50.5184 65.9983H70.8285V73.1816H41.0047L43.4419 57.1473L41.0047 41.1131H70.6147V48.2964H50.5184L51.4163 53.9191H69.3747V60.3756ZM83.2901 62.6631C83.4897 64.0172 84.3021 65.0861 85.7273 65.87C87.1526 66.6396 89.034 67.0245 91.3714 67.0245C93.5663 67.0245 95.2767 66.7394 96.5024 66.1693C97.7424 65.5992 98.3624 64.7868 98.3624 63.7321C98.3624 63.162 98.2056 62.6917 97.892 62.3211C97.5785 61.9363 97.044 61.6227 96.2886 61.3804C95.5475 61.1381 94.5141 60.9528 93.1886 60.8245L87.2453 60.2687C82.8697 59.8696 79.6699 58.8862 77.6461 57.3184C75.6364 55.7363 74.6316 53.5414 74.6316 50.7336C74.6316 48.553 75.273 46.693 76.5557 45.1537C77.8385 43.6002 79.6486 42.4243 81.986 41.6262C84.3377 40.8137 87.0956 40.4075 90.2597 40.4075C93.3098 40.4075 96.0392 40.8494 98.4479 41.733C100.857 42.6167 102.759 43.8567 104.156 45.453C105.567 47.0493 106.344 48.895 106.486 50.9902H97.4644C97.3077 49.8357 96.5808 48.9307 95.2838 48.275C94.001 47.6052 92.2693 47.2702 90.0887 47.2702C88.0648 47.2702 86.4756 47.541 85.3211 48.0826C84.1809 48.6242 83.6108 49.3939 83.6108 50.3916C83.6108 51.1755 83.9671 51.7883 84.6798 52.2302C85.3924 52.6577 86.6395 52.9642 88.4211 53.1495L94.8134 53.7695C97.8493 54.0545 100.279 54.5462 102.104 55.2446C103.928 55.943 105.254 56.8979 106.08 58.1094C106.907 59.3209 107.32 60.8531 107.32 62.7059C107.32 64.9293 106.65 66.8891 105.311 68.5851C103.971 70.267 102.082 71.5711 99.6451 72.4975C97.2079 73.4239 94.393 73.8871 91.2004 73.8871C87.908 73.8871 84.9933 73.4239 82.4563 72.4975C79.9194 71.5568 77.9382 70.2385 76.513 68.5424C75.0877 66.8463 74.3394 64.8866 74.2682 62.6631H83.2901ZM120.394 41.1131V73.1816H111.522V41.1131H120.394ZM145.052 56.5915H162.049V73.1816H155.785L155.357 68.8845C153.974 70.4522 152.236 71.678 150.14 72.5616C148.06 73.4453 145.644 73.8871 142.893 73.8871C139.515 73.8871 136.451 73.2315 133.7 71.9203C130.949 70.5948 128.776 68.6707 127.179 66.1479C125.583 63.6252 124.785 60.625 124.785 57.1473C124.785 53.6554 125.59 50.6552 127.201 48.1468C128.811 45.624 131.02 43.707 133.828 42.3958C136.65 41.0703 139.836 40.4075 143.385 40.4075C146.82 40.4075 149.834 40.942 152.428 42.011C155.036 43.0799 157.124 44.5622 158.692 46.4578C160.274 48.3534 161.3 50.5412 161.771 53.0212H152.834C152.549 51.9522 151.972 51.0258 151.102 50.2419C150.247 49.458 149.157 48.8594 147.831 48.4461C146.52 48.0185 145.045 47.8047 143.406 47.8047C141.396 47.8047 139.665 48.161 138.211 48.8737C136.757 49.572 135.638 50.6196 134.854 52.0164C134.071 53.4131 133.679 55.1235 133.679 57.1473C133.679 59.1997 134.099 60.9386 134.94 62.3638C135.795 63.7891 137.007 64.8652 138.574 65.5921C140.156 66.319 142.031 66.6824 144.197 66.6824C146.392 66.6824 148.316 66.3546 149.969 65.699C151.637 65.0291 152.92 64.0742 153.818 62.8342H145.052V56.5915ZM167.131 41.1131H178.612L194.133 63.1335V41.1131H202.727V73.1816H191.567L175.747 50.6695V73.1816H167.131V41.1131Z" fill="#FEFAFE"/>
<path d="M179.403 6.13548V9.38066H184.343V6.13548H185.708V13.8867H184.343V10.5795H179.403V13.8867H178.039V6.13548H179.403ZM188.107 6.13548L190.236 12.6465L192.592 6.13548H194.07L196.427 12.6207L198.556 6.13548H199.982L197.357 13.8867H195.62L193.326 7.65472L191.032 13.8867H189.295L186.67 6.13548H188.107Z" fill="#FEFAFE"/>
<rect x="175.134" y="3.69542" width="27.0403" height="12.7597" rx="2.81303" stroke="#FEFAFE" stroke-width="1.12521"/>
</svg>
